# xmcd
#
# Track frame offsets:
#  150
#  15637
#  29530
#  45415
#  63522
#  81195
#  100710
#  115495
#  130330
#  146197
#  162042
#  179612
#  194082
#  214042
#  229365
#  251902
#  269217
#  288917
#  306475
#
# Disc length: 4318 seconds
#
# Revision: 0
# Processed by: cddbd v1.5.2PL0 Copyright (c) Steve Scherf et al.
# Submitted via: AltoMP3_Maker 3.0
#
DISCID=2c10dc13
DTITLE=Reba McEntire - Moments to remember The best of
DYEAR=1900
DGENRE=
TTITLE0=Whoever's in New England
TTITLE1=The fear of being alone
TTITLE2=I'd rather ride around with you
TTITLE3=You lie
TTITLE4=Is there life out there
TTITLE5=For my broken heart
TTITLE6=Walk on
TTITLE7=The greatest man I never knew
TTITLE8=Why haven't I heard from you
TTITLE9=And still
TTITLE10=The heart is a lonely hunter
TTITLE11=It's your call
TTITLE12=She thinks his name was John
TTITLE13=The heart won't lie
TTITLE14=Fancy
TTITLE15=Rumor has it
TTITLE16=Does he love you
TTITLE17=Till you love me
TTITLE18=Forever love
EXTD=
EXTT0=
EXTT1=
EXTT2=
EXTT3=
EXTT4=
EXTT5=
EXTT6=
EXTT7=
EXTT8=
EXTT9=
EXTT10=
EXTT11=
EXTT12=
EXTT13=
EXTT14=
EXTT15=
EXTT16=
EXTT17=
EXTT18=
PLAYORDER=
